<?xml version="1.0" encoding="UTF-8"?>
<svg width="302.8" height="81.601" viewBox="0 0 302.8 81.601" xmlns="http://www.w3.org/2000/svg"><g id="svgGroup" stroke-linecap="round" fill-rule="evenodd" font-size="9pt" stroke="#000" stroke-width="0.25mm" fill="#000" style="stroke:#000;stroke-width:0.25mm;fill:#000"><path d="M 137.9 48.801 Q 139.9 51.701 140.85 55.151 A 26.284 26.284 0 0 1 141.666 59.717 A 32.434 32.434 0 0 1 141.8 62.701 Q 141.8 70.701 136.85 75.701 A 16.659 16.659 0 0 1 126.237 80.602 A 22.59 22.59 0 0 1 124.1 80.701 A 20.655 20.655 0 0 1 117.482 79.692 A 16.688 16.688 0 0 1 109.15 73.451 A 25.472 25.472 0 0 1 105.338 65.371 Q 104.35 61.879 104.04 57.719 A 52.912 52.912 0 0 1 103.9 53.801 A 11.74 11.74 0 0 1 105.692 52.956 A 14.137 14.137 0 0 1 106.6 52.651 Q 108.1 52.201 109.7 52.101 Q 109.6 63.401 113.35 69.701 A 14.26 14.26 0 0 0 116.3 73.287 Q 119.472 76.001 124 76.001 A 12.648 12.648 0 0 0 128.038 75.383 A 10.485 10.485 0 0 0 132.55 72.401 A 12.353 12.353 0 0 0 135.498 66.331 A 17.558 17.558 0 0 0 135.8 63.001 A 23.957 23.957 0 0 0 135.431 58.721 A 20.371 20.371 0 0 0 134.9 56.501 Q 134 53.501 132.1 51.001 A 23.226 23.226 0 0 0 130.448 48.976 A 29.762 29.762 0 0 0 128.9 47.401 Q 127.427 46.005 124.511 43.828 A 134.776 134.776 0 0 0 122.7 42.501 Q 118.779 39.56 116.593 37.587 A 31.001 31.001 0 0 1 115.7 36.751 A 27.604 27.604 0 0 1 113.533 34.384 A 21.525 21.525 0 0 1 112.1 32.401 Q 110.1 29.401 109.15 25.951 A 26.107 26.107 0 0 1 108.357 21.589 A 33.364 33.364 0 0 1 108.2 18.301 A 25.616 25.616 0 0 1 108.762 12.769 Q 109.8 8.078 112.75 4.901 A 15.06 15.06 0 0 1 121.892 0.219 A 21.377 21.377 0 0 1 125 0.001 A 19.78 19.78 0 0 1 129.465 0.475 Q 133.51 1.412 136.1 4.201 A 15.343 15.343 0 0 1 138.393 7.538 Q 140.208 11 141.403 16.417 A 66.534 66.534 0 0 1 141.9 18.901 Q 140.8 19.501 139.55 19.801 Q 138.642 20.019 137.39 20.131 A 26.886 26.886 0 0 1 136.4 20.201 A 48.587 48.587 0 0 0 135.703 15.948 Q 134.641 10.974 132.7 8.351 A 8.757 8.757 0 0 0 126.783 4.857 A 13.289 13.289 0 0 0 124.7 4.701 Q 119.6 4.701 116.9 8.101 Q 114.838 10.698 114.351 15.104 A 26.407 26.407 0 0 0 114.2 18.001 A 25.077 25.077 0 0 0 114.501 21.963 A 20.364 20.364 0 0 0 115.1 24.601 Q 116 27.601 117.9 30.201 Q 119.3 32.001 121.2 33.801 Q 123.1 35.601 127.4 38.901 Q 131.286 41.734 133.435 43.65 A 27.579 27.579 0 0 1 134.35 44.501 A 26.677 26.677 0 0 1 136.531 46.895 A 21.555 21.555 0 0 1 137.9 48.801 Z M 183.1 63.201 A 127.689 127.689 0 0 0 184.05 58.53 Q 185.5 50.619 185.5 44.401 A 65.763 65.763 0 0 0 185.43 41.294 Q 185.184 36.111 184.082 32.614 A 14.763 14.763 0 0 0 182.5 29.101 A 9.705 9.705 0 0 0 176.353 24.815 A 15.894 15.894 0 0 0 172.6 24.401 A 10.427 10.427 0 0 0 171.391 24.471 Q 167.709 24.9 164.1 27.951 Q 161.738 29.948 159.755 32.751 A 35.566 35.566 0 0 0 156.9 37.601 Q 157.3 28.501 158.4 19.101 Q 159.5 9.701 161.2 2.001 A 1.233 1.233 0 0 0 161.109 1.96 Q 161.019 1.923 160.911 1.895 A 2.374 2.374 0 0 0 160.7 1.851 A 1.668 1.668 0 0 1 160.524 1.811 Q 160.406 1.778 160.275 1.725 A 3.686 3.686 0 0 1 160 1.601 L 158.65 1.301 A 4.498 4.498 0 0 0 158.32 1.24 A 3.623 3.623 0 0 0 157.8 1.201 Q 157 1.201 156.2 1.401 A 4.169 4.169 0 0 0 156.035 1.446 Q 155.27 1.671 154.1 2.301 A 56.296 56.296 0 0 0 154.04 2.698 Q 153.473 6.57 152.956 13.616 A 442.339 442.339 0 0 0 152.6 18.951 Q 152.163 26.107 151.998 32.111 A 249.263 249.263 0 0 0 151.9 38.901 Q 151.9 46.401 152.3 55.251 Q 152.7 64.101 153.4 74.001 Q 154.7 74.001 156.1 73.851 A 16.972 16.972 0 0 0 156.828 73.757 Q 157.746 73.619 158.4 73.401 A 157.924 157.924 0 0 1 158.163 71.16 Q 157.771 67.208 157.35 61.351 A 342.227 342.227 0 0 1 157.05 56.77 Q 156.922 54.579 156.838 52.589 A 185.232 185.232 0 0 1 156.7 48.101 A 50.288 50.288 0 0 1 157.323 45.852 Q 158.316 42.574 159.658 39.859 A 27.009 27.009 0 0 1 163.3 34.251 Q 167.7 29.101 172.3 29.101 A 8.814 8.814 0 0 1 174.23 29.3 A 5.76 5.76 0 0 1 178.3 32.501 A 10.768 10.768 0 0 1 179.011 34.408 Q 180 37.942 180 44.501 A 78.324 78.324 0 0 1 179.665 51.624 A 97.971 97.971 0 0 1 178.25 61.401 Q 176.5 70.401 173.5 78.201 A 8.101 8.101 0 0 0 174.21 78.623 A 9.652 9.652 0 0 0 175.55 79.201 A 18.723 18.723 0 0 0 176.604 79.531 A 23.892 23.892 0 0 0 178.1 79.901 A 41.444 41.444 0 0 0 178.476 79.019 Q 180.874 73.218 183.1 63.201 Z M 69.1 52.301 Q 69.1 59.401 69.55 66.501 Q 70 73.601 70.9 81.101 Q 69.3 81.301 67.95 81.451 A 34.131 34.131 0 0 1 67.16 81.53 Q 66.464 81.591 65.96 81.599 A 9.412 9.412 0 0 1 65.8 81.601 Q 64.7 69.101 64.3 61.601 A 287.774 287.774 0 0 1 63.906 48.093 A 316.259 316.259 0 0 1 63.9 46.101 Q 63.9 35.101 64.65 24.501 Q 65.4 13.901 66.9 3.501 Q 68.443 3.243 69.729 3.243 A 12.23 12.23 0 0 1 70.15 3.251 A 14.184 14.184 0 0 1 71.692 3.384 A 11.158 11.158 0 0 1 72.8 3.601 Q 71.1 14.701 70.25 24.951 A 327.254 327.254 0 0 0 69.228 44.741 A 357.236 357.236 0 0 0 69.2 46.101 Q 75.398 40.81 79.682 36.261 A 76.268 76.268 0 0 0 82.25 33.401 A 92.252 92.252 0 0 0 85.993 28.676 Q 87.997 25.98 90.116 22.797 A 186.028 186.028 0 0 0 92.7 18.801 Q 93.9 19.501 94.85 20.201 A 10.812 10.812 0 0 1 96.038 21.21 A 9.275 9.275 0 0 1 96.5 21.701 A 206.178 206.178 0 0 1 93.132 26.777 Q 89.572 31.963 86.65 35.401 A 78.549 78.549 0 0 1 82.215 40.176 Q 79.793 42.587 76.928 45.085 A 130.747 130.747 0 0 1 76.1 45.801 Q 80.612 52.615 85.21 57.352 A 56.202 56.202 0 0 0 86 58.151 A 68.847 68.847 0 0 0 90.574 62.263 Q 92.897 64.183 95.647 66.179 A 134.914 134.914 0 0 0 99.1 68.601 Q 98.201 70.234 97.536 71.134 A 8.023 8.023 0 0 1 97.25 71.501 A 10.364 10.364 0 0 1 96.403 72.407 A 8.168 8.168 0 0 1 95.7 73.001 Q 89.349 68.081 84.798 63.481 A 76.198 76.198 0 0 1 83.75 62.401 A 94.317 94.317 0 0 1 80.077 58.283 Q 76.636 54.21 72.6 48.701 Q 72.3 48.901 72 49.151 L 71.1 49.901 Q 70.3 50.501 69.9 50.851 A 13.849 13.849 0 0 1 69.2 51.425 A 12.642 12.642 0 0 1 69.1 51.501 L 69.1 51.901 L 69.1 52.301 Z M 25.6 58.701 Q 25.6 64.001 25.8 70.351 Q 25.951 75.138 26.215 77.851 A 31.747 31.747 0 0 0 26.4 79.401 A 6.514 6.514 0 0 1 25.594 79.693 Q 25.193 79.811 24.729 79.902 A 12.74 12.74 0 0 1 24.15 80.001 Q 22.8 80.201 21.6 80.201 Q 21.1 70.101 20.65 53.401 A 1473.123 1473.123 0 0 1 20.376 41.551 Q 20.288 36.894 20.244 32.707 A 755.413 755.413 0 0 1 20.2 24.801 Q 21 24.401 21.9 24.201 A 8.537 8.537 0 0 1 23.429 24.008 A 9.727 9.727 0 0 1 23.8 24.001 Q 24.5 24.001 25.3 24.051 A 10.195 10.195 0 0 1 26.339 24.172 A 12.588 12.588 0 0 1 27 24.301 A 2.81 2.81 0 0 1 26.995 24.413 Q 26.967 24.936 26.772 27.694 A 2060.233 2060.233 0 0 1 26.7 28.701 Q 26.4 32.901 26.3 35.801 Q 29.6 30.101 33.3 27.251 A 14.488 14.488 0 0 1 36.735 25.253 A 11.613 11.613 0 0 1 41.1 24.401 A 13.221 13.221 0 0 1 44.561 24.825 A 8.714 8.714 0 0 1 49.9 28.801 A 14.182 14.182 0 0 1 51.324 32.068 Q 52.316 35.305 52.537 40.055 A 61.338 61.338 0 0 1 52.6 42.901 Q 52.6 50.801 51.35 60.451 Q 50.32 68.404 49.188 73.471 A 61.885 61.885 0 0 1 48.7 75.501 A 16.183 16.183 0 0 1 47.016 75.278 A 19.825 19.825 0 0 1 45.95 75.051 A 18.083 18.083 0 0 1 45.107 74.827 Q 44.307 74.592 43.774 74.337 A 4.979 4.979 0 0 1 43.7 74.301 Q 45.078 66.721 45.87 60.577 A 172.241 172.241 0 0 0 46.3 56.951 Q 47.1 49.501 47.1 42.501 A 44.49 44.49 0 0 0 46.98 39.107 Q 46.726 35.805 45.936 33.719 A 8.794 8.794 0 0 0 45.4 32.551 Q 43.899 29.857 40.76 29.542 A 8.614 8.614 0 0 0 39.9 29.501 Q 36.1 29.501 32.35 33.201 Q 29.105 36.402 26.647 41.7 A 45.529 45.529 0 0 0 25.9 43.401 Q 25.8 47.401 25.7 51.351 Q 25.6 55.301 25.6 58.701 Z M 227.824 47.493 A 65.839 65.839 0 0 0 228 42.901 Q 228 33.201 224.45 28.301 A 11.26 11.26 0 0 0 218.259 23.967 A 15.83 15.83 0 0 0 213.9 23.401 Q 207.3 23.401 202.05 28.201 Q 196.8 33.001 195.7 39.801 Q 196.5 40.901 197.75 41.551 Q 198.609 41.998 199.918 42.373 A 23.561 23.561 0 0 0 201.2 42.701 A 21.869 21.869 0 0 1 201.67 38.737 A 15.879 15.879 0 0 1 204.75 32.101 A 14.065 14.065 0 0 1 205.501 31.232 A 9.941 9.941 0 0 1 213 27.901 A 11.311 11.311 0 0 1 215.275 28.116 A 6.89 6.89 0 0 1 220 31.351 Q 222.1 34.801 222.1 42.601 L 222.1 47.351 Q 222.1 48.801 222 50.001 Q 219.2 49.901 217.75 49.851 Q 216.3 49.801 214.9 49.801 Q 208.173 49.801 203.499 51.175 A 19.247 19.247 0 0 0 198.9 53.151 A 14.342 14.342 0 0 0 198.056 53.705 Q 193.4 57.012 193.4 62.901 A 16.025 16.025 0 0 0 193.417 63.639 A 11.838 11.838 0 0 0 197.45 72.301 A 13.777 13.777 0 0 0 203.509 75.394 A 19.713 19.713 0 0 0 208.1 75.901 A 20.184 20.184 0 0 0 208.123 75.901 A 17.9 17.9 0 0 0 213.8 75.001 A 30.523 30.523 0 0 0 213.803 75 A 15.183 15.183 0 0 0 218.6 72.401 A 1.253 1.253 0 0 0 218.591 72.43 Q 218.492 72.753 218.08 74.533 A 336.148 336.148 0 0 0 217.95 75.101 A 368.838 368.838 0 0 1 217.924 75.216 Q 217.39 77.539 217 79.101 A 17.45 17.45 0 0 0 217.566 79.307 A 15.217 15.217 0 0 0 219.55 79.851 A 13.773 13.773 0 0 0 220.504 80.008 A 11.016 11.016 0 0 0 221.9 80.101 Q 224.4 71.301 226.2 60.451 A 214.667 214.667 0 0 0 226.361 59.469 Q 227.463 52.626 227.824 47.493 Z M 299.681 60.43 A 6.885 6.885 0 0 0 298.2 60.001 Q 296.7 65.501 292.45 69.351 A 21.119 21.119 0 0 1 291.752 69.956 Q 290.237 71.213 288.703 71.982 A 10.832 10.832 0 0 1 283.8 73.201 A 8.134 8.134 0 0 1 277.782 70.655 A 12.682 12.682 0 0 1 275.85 68.051 A 18.833 18.833 0 0 1 274.487 65.081 Q 272.9 60.688 272.9 54.601 Q 272.9 53.401 272.95 52.251 A 17.995 17.995 0 0 1 272.953 52.179 A 19.474 19.474 0 0 1 273.2 49.901 Q 276.6 51.101 280.2 51.751 Q 283.8 52.401 287.3 52.401 A 78.226 78.226 0 0 0 288.933 52.384 Q 290.247 52.357 291.409 52.283 A 40.535 40.535 0 0 0 293.5 52.101 A 34.326 34.326 0 0 0 294.217 52.01 Q 295.273 51.866 296.204 51.668 A 19.283 19.283 0 0 0 298 51.201 A 32.032 32.032 0 0 0 298.327 50.349 A 35.275 35.275 0 0 0 299.85 44.801 Q 300.5 41.401 300.5 37.901 Q 300.5 31.601 297.35 27.951 A 10.065 10.065 0 0 0 292.495 24.814 A 13.312 13.312 0 0 0 288.7 24.301 A 15.46 15.46 0 0 0 284.326 24.917 Q 280.703 25.98 277.586 28.874 A 26.854 26.854 0 0 0 273.65 33.551 Q 267.4 42.801 267.4 54.201 A 47.095 47.095 0 0 0 267.521 57.635 Q 267.788 61.282 268.642 64.356 A 23.032 23.032 0 0 0 271.8 71.301 Q 276.2 77.701 283.9 77.701 Q 287.552 77.701 291.203 75.792 A 24.379 24.379 0 0 0 295.3 73.051 Q 301 68.401 302.8 62.601 A 7.877 7.877 0 0 0 302.54 62.325 A 8.463 8.463 0 0 0 300.65 60.901 A 8.89 8.89 0 0 0 299.681 60.43 Z M 246.8 77.001 Q 246.3 77.201 245.65 77.351 Q 245 77.501 244.2 77.601 A 7.173 7.173 0 0 1 243.782 77.648 Q 243.344 77.685 243 77.651 Q 242.5 77.601 242 77.501 Q 239.6 64.501 238.8 50.851 A 253.973 253.973 0 0 1 238.373 35.992 A 283.667 283.667 0 0 1 238.7 22.501 A 4.029 4.029 0 0 1 239.618 22.178 A 4.898 4.898 0 0 1 240.05 22.101 A 7.943 7.943 0 0 1 240.478 22.057 Q 240.969 22.019 241.68 22.006 A 41.967 41.967 0 0 1 242.4 22.001 Q 242.8 22.001 243.2 22.051 A 4.62 4.62 0 0 1 243.418 22.084 Q 243.884 22.166 244.9 22.401 Q 244.363 26.784 244.067 29.767 A 164.575 164.575 0 0 0 244 30.451 Q 243.7 33.601 243.6 36.301 A 45.947 45.947 0 0 1 245.578 30.539 Q 246.819 27.615 248.379 25.291 A 24.422 24.422 0 0 1 249.7 23.501 A 18.849 18.849 0 0 1 251.879 21.207 Q 254.737 18.701 257.7 18.701 Q 261.4 18.701 263.05 21.301 A 8.214 8.214 0 0 1 263.92 23.238 Q 264.526 25.162 264.661 28 A 35.841 35.841 0 0 1 264.7 29.701 Q 264.7 31.001 264.6 32.501 Q 264.5 34.001 264.4 35.601 A 7.767 7.767 0 0 1 263.74 35.756 Q 263.398 35.822 263.012 35.871 A 13.778 13.778 0 0 1 262.75 35.901 Q 262.023 35.977 260.797 35.995 A 54.584 54.584 0 0 1 260 36.001 Q 260.2 34.401 260.3 32.901 A 44.809 44.809 0 0 0 260.394 30.707 A 40.265 40.265 0 0 0 260.4 30.001 Q 260.4 27.186 259.852 25.639 A 4.725 4.725 0 0 0 259.6 25.051 Q 258.858 23.612 257.34 23.509 A 3.527 3.527 0 0 0 257.1 23.501 Q 254.116 23.501 251.132 28.281 A 32.25 32.25 0 0 0 249.7 30.851 A 51.855 51.855 0 0 0 247.122 37.003 Q 245.138 42.663 243.7 50.101 Q 244 55.501 244.75 62.001 Q 245.395 67.587 246.445 74.65 A 582.335 582.335 0 0 0 246.8 77.001 Z M 6.7 28.601 Q 6.7 56.201 6.55 63.551 Q 6.4 70.901 6.2 78.901 A 7.289 7.289 0 0 1 5.709 79.021 Q 5.194 79.13 4.487 79.221 A 25.848 25.848 0 0 1 4.25 79.251 A 41.734 41.734 0 0 1 3.001 79.38 Q 2.344 79.439 1.611 79.487 A 70.139 70.139 0 0 1 1.4 79.501 A 1101.894 1101.894 0 0 0 1.538 62.2 A 970.79 970.79 0 0 0 1.35 42.851 A 805.319 805.319 0 0 0 0.659 21.675 A 676.214 676.214 0 0 0 0 9.701 A 8.278 8.278 0 0 1 1.438 9.137 A 7.264 7.264 0 0 1 2 9.001 A 10.497 10.497 0 0 1 3.759 8.806 A 11.848 11.848 0 0 1 4.1 8.801 A 7.195 7.195 0 0 1 4.62 8.82 A 8.664 8.664 0 0 1 4.95 8.851 Q 5.353 8.895 5.955 8.98 A 66.822 66.822 0 0 1 6.1 9.001 Q 6.4 13.301 6.55 17.751 A 232.548 232.548 0 0 1 6.641 21.362 Q 6.671 22.981 6.685 24.791 A 471.507 471.507 0 0 1 6.7 28.601 Z M 199.2 62.901 A 9.468 9.468 0 0 0 199.613 65.762 A 7.565 7.565 0 0 0 201.8 69.151 A 8.905 8.905 0 0 0 206.131 71.271 A 12.672 12.672 0 0 0 208.6 71.501 Q 211.7 71.501 214.55 70.551 Q 217.4 69.601 219.7 67.801 A 162.352 162.352 0 0 0 220.373 64.48 Q 220.869 61.882 221.15 59.851 Q 221.6 56.601 221.8 53.501 Q 213.499 52.982 208.219 54.138 A 19.878 19.878 0 0 0 204.9 55.151 A 11.639 11.639 0 0 0 202.145 56.714 A 7.453 7.453 0 0 0 199.2 62.901 Z M 274 45.801 A 29.329 29.329 0 0 0 279.368 47.451 A 33.506 33.506 0 0 0 280.7 47.701 Q 283.794 48.216 287.7 48.289 A 70.063 70.063 0 0 0 289 48.301 A 21.583 21.583 0 0 0 290.559 48.242 A 25.991 25.991 0 0 0 291.55 48.151 Q 292.568 48.038 293.159 47.896 A 4.115 4.115 0 0 0 293.5 47.801 A 78.826 78.826 0 0 0 294.193 44.665 A 61.584 61.584 0 0 0 294.6 42.401 Q 295 39.901 295 37.801 A 22.771 22.771 0 0 0 294.887 35.445 Q 294.575 32.456 293.4 30.951 A 4.957 4.957 0 0 0 290.988 29.3 Q 290.145 29.019 289.109 28.936 A 11.339 11.339 0 0 0 288.2 28.901 Q 284.009 28.901 280.399 32.802 A 19.67 19.67 0 0 0 279.7 33.601 A 25.164 25.164 0 0 0 276.154 39.373 Q 274.968 42.005 274.163 45.146 A 43.306 43.306 0 0 0 274 45.801 Z" vector-effect="non-scaling-stroke"/></g></svg>